<svg xmlns="http://www.w3.org/2000/svg" viewBox="0 0 192 192" width="192" height="192">
  <defs>
    <radialGradient id="bg-grad" cx="50%" cy="50%" r="50%">
      <stop offset="0%" stop-color="#1a1a2e"/>
      <stop offset="100%" stop-color="#0a0a1a"/>
    </radialGradient>
    <linearGradient id="star-grad" x1="0%" y1="0%" x2="100%" y2="100%">
      <stop offset="0%" stop-color="#b084ff"/>
      <stop offset="50%" stop-color="#80e1ff"/>
      <stop offset="100%" stop-color="#ffd700"/>
    </linearGradient>
  </defs>
  <circle cx="96" cy="96" r="96" fill="url(#bg-grad)"/>
  <circle cx="96" cy="96" r="80" stroke="#b084ff" stroke-width="1.5" fill="none" opacity="0.4"/>
  <circle cx="96" cy="96" r="60" stroke="#80e1ff" stroke-width="0.8" fill="none" opacity="0.3"/>
  <!-- Compass rose / star -->
  <path d="M96 20 L106 76 L156 96 L106 116 L96 172 L86 116 L36 96 L86 76 Z" 
        fill="none" stroke="url(#star-grad)" stroke-width="2.5" stroke-linejoin="round"/>
  <!-- Inner diamond -->
  <path d="M96 56 L116 96 L96 136 L76 96 Z" 
        fill="none" stroke="#ffd700" stroke-width="1.2" opacity="0.7"/>
  <!-- Center orb -->
  <circle cx="96" cy="96" r="8" fill="#ffffff" opacity="0.9"/>
  <circle cx="96" cy="96" r="4" fill="#b084ff"/>
  <!-- Small accent dots at cardinal points -->
  <circle cx="96" cy="28" r="3" fill="#80e1ff" opacity="0.8"/>
  <circle cx="96" cy="164" r="3" fill="#80e1ff" opacity="0.8"/>
  <circle cx="28" cy="96" r="3" fill="#80e1ff" opacity="0.8"/>
  <circle cx="164" cy="96" r="3" fill="#80e1ff" opacity="0.8"/>
</svg>
